<?xml version="1.0" standalone="no"?>
<!DOCTYPE svg PUBLIC "-//W3C//DTD SVG 20010904//EN"
 "http://www.w3.org/TR/2001/REC-SVG-20010904/DTD/svg10.dtd">
<svg version="1.0" xmlns="http://www.w3.org/2000/svg"
 width="160.000000pt" height="107.000000pt" viewBox="0 0 160.000000 107.000000"
 preserveAspectRatio="xMidYMid meet">

<g transform="translate(0.000000,107.000000) scale(0.100000,-0.100000)"
fill="#000000" stroke="none">
<path d="M0 535 l0 -535 54 0 c44 0 55 4 59 18 4 16 5 16 6 0 1 -16 15 -18
156 -18 l155 0 12 30 c12 28 15 29 38 17 14 -7 24 -21 24 -30 -2 -16 25 -17
331 -17 185 0 345 4 359 9 45 18 134 21 140 5 4 -11 30 -14 120 -14 63 0 121
3 130 6 11 4 16 19 16 43 l0 37 -67 0 -68 -1 -6 70 c-6 68 -22 128 -41 151
-12 16 -74 1 -101 -24 -39 -34 -48 -36 -37 -7 6 15 14 35 20 45 7 13 6 19 -5
23 -9 4 -19 -8 -31 -39 -16 -43 -36 -56 -50 -33 -3 6 0 16 7 21 11 7 9 8 -5 4
-11 -4 -23 -1 -27 6 -13 21 -42 -4 -56 -48 l-12 -39 2 47 c1 25 5 44 10 41 4
-2 7 3 7 12 0 9 -4 14 -9 10 -6 -3 -8 5 -5 19 5 32 -12 43 -26 16 -6 -11 -16
-20 -22 -20 -6 0 -4 8 5 18 10 10 17 24 17 30 0 6 7 9 16 5 13 -5 15 1 13 28
-2 19 -7 40 -12 46 -10 14 -27 8 -27 -10 0 -7 4 -6 11 3 8 12 10 12 7 1 -5
-19 -48 -22 -48 -4 0 8 -8 23 -19 34 -17 19 -19 19 -25 3 -4 -11 -1 -21 9 -26
8 -5 15 -17 14 -26 0 -10 -3 -12 -6 -5 -3 10 -10 10 -31 -1 l-27 -14 -3 62
c-2 43 0 57 8 46 11 -18 10 -24 18 93 1 15 6 27 10 27 15 0 52 -37 53 -51 0
-8 5 -3 11 11 6 14 12 20 15 14 5 -16 40 -6 47 13 5 12 11 11 36 -7 21 -15 30
-17 30 -8 0 8 15 14 40 16 22 1 40 -2 40 -8 0 -5 14 -10 30 -10 17 0 30 -4 30
-10 0 -5 7 -10 15 -10 10 0 15 10 16 28 l0 27 16 -22 c17 -26 43 -31 43 -9 0
11 11 14 47 11 26 -1 49 -8 51 -14 6 -18 22 -13 33 12 5 12 16 33 25 47 8 14
13 36 12 50 l-3 25 -280 -2 c-154 -1 -289 -4 -300 -6 -11 -2 -26 2 -33 10 -12
12 -16 30 -26 121 -2 12 -10 28 -19 35 -11 8 -14 21 -10 39 3 15 8 26 12 24 4
-3 13 0 21 5 11 7 7 9 -16 7 -26 -2 -30 -5 -26 -25 6 -31 -3 -29 -51 12 -29
25 -44 32 -53 24 -7 -6 -15 -6 -18 -1 -8 13 -49 20 -72 12 -10 -4 -26 -4 -35
1 -11 6 -21 4 -29 -6 -7 -8 -23 -15 -35 -15 -13 0 -26 -7 -29 -16 -3 -8 -10
-13 -15 -10 -11 7 -21 -17 -21 -53 0 -15 -9 -44 -20 -66 -11 -22 -20 -51 -20
-66 0 -15 -6 -29 -13 -32 -27 -10 -347 -8 -347 2 0 6 -9 11 -21 11 -18 0 -20
4 -14 44 7 42 9 125 5 156 -1 8 -7 2 -15 -14 -12 -28 -12 -24 -11 47 1 77 -6
90 -33 65 -11 -10 -13 -10 -7 0 5 8 -3 12 -28 12 l-35 0 -1 -535z m774 389
c22 -9 20 -27 -2 -20 -27 9 -158 -48 -186 -81 -18 -21 -28 -25 -36 -17 -9 9
-7 22 9 52 11 22 26 44 31 47 27 16 156 30 184 19z m-654 -114 c0 -5 -5 -10
-11 -10 -5 0 -7 5 -4 10 3 6 8 10 11 10 2 0 4 -4 4 -10z m590 -14 c0 -2 -11
-6 -25 -8 -14 -3 -25 -1 -25 3 0 5 11 9 25 9 14 0 25 -2 25 -4z m-150 -35 c0
-5 -7 -11 -14 -14 -10 -4 -13 -1 -9 9 6 15 23 19 23 5z m100 -13 c0 -7 -5 -20
-10 -28 -7 -12 -12 -12 -21 -3 -9 9 -9 16 1 28 15 18 30 20 30 3z m-65 -18
c-3 -5 -13 -10 -21 -10 -8 0 -12 5 -9 10 3 6 13 10 21 10 8 0 12 -4 9 -10z
m-467 -80 c-1 -33 -6 -60 -10 -60 -4 0 -8 5 -8 11 0 5 -5 7 -11 3 -8 -5 -8 -1
0 14 6 11 11 37 11 56 0 20 5 36 10 36 6 0 10 -24 8 -60z m402 56 c0 -18 -15
-36 -31 -36 -22 0 -24 11 -7 28 11 11 38 17 38 8z m77 -46 c-3 -10 -1 -20 4
-22 5 -2 -6 -8 -24 -13 l-33 -11 20 33 c23 36 41 43 33 13z m88 10 c-3 -5 -16
-10 -28 -9 -21 0 -21 1 -2 9 28 12 37 12 30 0z m-254 -20 c13 0 17 -5 12 -17
-4 -11 -3 -14 5 -9 7 4 15 1 18 -8 3 -9 10 -16 15 -16 6 0 5 8 -1 19 -14 27
-13 31 9 31 20 0 39 -32 23 -38 -23 -7 31 -141 58 -143 8 0 -4 -7 -28 -16 -31
-11 -50 -26 -68 -54 -14 -22 -23 -43 -20 -47 2 -4 -9 -23 -25 -42 -15 -19 -29
-29 -29 -22 0 7 -4 11 -10 7 -5 -3 -7 -12 -3 -20 7 -21 -14 -19 -27 3 -9 14
-10 13 -4 -7 3 -13 2 -26 -2 -30 -14 -10 -44 -80 -44 -101 0 -24 -21 -70 -32
-70 -4 0 -8 5 -8 10 0 6 -7 10 -15 10 -8 0 -15 -4 -15 -8 0 -10 -30 -9 -47 1
-6 4 -23 8 -37 9 -26 2 -37 27 -13 29 9 0 9 2 0 6 -10 3 -10 9 0 24 14 23 27
25 27 4 0 -17 16 -20 25 -6 3 5 28 7 55 4 33 -3 50 -2 50 6 0 6 -8 11 -17 11
-10 0 -26 7 -36 15 -11 7 -25 11 -31 9 -17 -7 -41 22 -26 31 6 3 7 12 3 18
-12 20 -10 49 4 54 20 8 16 23 -7 23 -12 0 -20 -6 -19 -13 2 -19 -12 -57 -22
-57 -5 0 -9 5 -9 10 0 6 -10 15 -22 20 -13 5 -17 9 -10 9 7 1 10 6 7 12 -4 6
-7 26 -7 45 0 19 -3 34 -7 34 -4 0 -7 9 -7 19 0 11 4 18 8 15 4 -2 11 4 17 13
8 15 10 11 11 -21 0 -22 3 -36 6 -33 4 3 7 56 7 117 0 60 3 110 8 110 4 0 9
-8 12 -17 3 -14 6 -11 11 10 6 21 14 27 35 27 18 0 22 -3 13 -9 -11 -7 -10
-10 3 -15 26 -10 35 -7 29 9 -4 10 0 15 12 16 69 2 93 8 114 29 15 15 25 19
28 12 2 -7 12 -12 23 -12z m114 -230 c-3 -5 -10 -10 -16 -10 -5 0 -9 5 -9 10
0 6 7 10 16 10 8 0 12 -4 9 -10z m565 1 c0 -5 -14 -11 -32 -13 -28 -5 -29 -4
-13 9 21 15 45 17 45 4z m235 -139 c-6 -4 -28 -23 -49 -42 l-40 -35 33 43 c18
23 40 42 49 42 9 0 12 -3 7 -8z m-1225 -22 c0 -5 -4 -10 -10 -10 -5 0 -10 5
-10 10 0 6 5 10 10 10 6 0 10 -4 10 -10z m633 -17 c-8 -3 -8 -11 3 -31 12 -23
11 -28 -3 -44 -25 -28 -41 -22 -37 15 1 17 3 45 3 60 1 26 3 27 23 16 13 -7
18 -14 11 -16z m622 -3 c-4 -6 -25 -20 -48 -31 -23 -12 -51 -29 -62 -38 -11
-8 -7 -1 9 17 17 17 37 32 46 32 9 0 25 7 36 15 23 17 27 18 19 5z m-1223 -48
c-11 -11 -22 -26 -24 -33 -3 -8 -9 -11 -13 -7 -4 4 0 14 8 23 9 8 14 23 11 33
-5 13 -4 14 4 4 7 -11 11 -8 17 10 6 18 8 20 12 6 2 -9 -4 -25 -15 -36z m505
-14 c-3 -8 -6 -5 -6 6 -1 11 2 17 5 13 3 -3 4 -12 1 -19z m-89 -29 c13 -43 10
-61 -9 -42 -13 13 -24 83 -13 83 5 0 15 -19 22 -41z m-78 -30 c0 -6 -4 -7 -10
-4 -5 3 -10 11 -10 16 0 6 5 7 10 4 6 -3 10 -11 10 -16z m-28 -31 c-7 -7 -12
-8 -12 -2 0 14 12 26 19 19 2 -3 -1 -11 -7 -17z m803 2 c-22 -25 -75 -52 -75
-39 0 5 8 13 18 16 9 4 28 15 41 25 31 24 39 23 16 -2z"/>
<path d="M170 350 c0 -13 5 -20 13 -17 6 2 12 10 12 17 0 7 -6 15 -12 18 -8 2
-13 -5 -13 -18z"/>
<path d="M135 350 c-3 -5 -1 -10 4 -10 6 0 11 5 11 10 0 6 -2 10 -4 10 -3 0
-8 -4 -11 -10z"/>
<path d="M241 278 c-1 -14 -7 -29 -13 -31 -7 -3 -8 -6 -3 -6 6 0 16 3 24 8 12
8 12 14 4 33 l-12 23 0 -27z"/>
<path d="M747 199 c4 -13 8 -18 11 -10 2 7 -1 18 -6 23 -8 8 -9 4 -5 -13z"/>
<path d="M128 1045 c-3 -14 0 -29 7 -33 6 -4 12 -18 12 -32 1 -89 2 -91 24
-79 13 6 17 14 12 18 -7 4 -8 33 -4 79 l7 72 -27 0 c-21 0 -28 -6 -31 -25z"/>
<path d="M1081 944 c0 -11 3 -14 6 -6 3 7 2 16 -1 19 -3 4 -6 -2 -5 -13z"/>
<path d="M1332 949 c2 -7 -4 -21 -14 -31 -17 -17 -17 -21 -3 -41 8 -12 15 -29
15 -39 0 -22 7 -23 26 -3 14 13 14 16 1 21 -13 5 -12 9 4 25 28 28 22 73 -10
77 -15 3 -22 -1 -19 -9z"/>
<path d="M986 869 c-18 -26 -21 -43 -7 -34 5 3 12 1 16 -5 8 -12 55 -13 74 -1
12 8 12 12 2 25 -8 9 -21 16 -30 16 -9 0 -22 5 -28 11 -8 8 -15 4 -27 -12z"/>
<path d="M168 839 c-3 -9 -2 -22 2 -30 13 -19 18 -8 10 21 -4 19 -7 21 -12 9z"/>
<path d="M1268 842 c-10 -2 -18 -8 -18 -13 0 -5 -10 -9 -22 -8 -43 4 -78 -1
-78 -11 0 -11 149 -5 161 7 11 11 -22 30 -43 25z"/>
<path d="M1467 836 c-10 -8 -15 -16 -10 -19 12 -7 53 11 53 23 0 14 -21 12
-43 -4z"/>
<path d="M1536 585 c-3 -8 -1 -15 5 -15 6 0 8 -13 4 -32 -3 -18 -1 -46 4 -63
8 -25 9 -16 10 48 1 71 -9 98 -23 62z"/>
<path d="M1010 550 c0 -5 19 -10 43 -10 31 0 38 3 27 10 -20 13 -70 13 -70 0z"/>
<path d="M1203 515 c-17 -36 -17 -37 2 -51 24 -18 35 -7 38 40 3 52 -18 57
-40 11z"/>
<path d="M1164 514 c-4 -10 -9 -22 -11 -26 -2 -5 0 -8 6 -8 11 0 26 39 17 47
-3 3 -9 -3 -12 -13z"/>
<path d="M1347 483 c-11 -10 -8 -73 3 -73 6 0 10 7 10 16 0 8 5 12 10 9 6 -3
10 -2 10 4 0 5 -4 12 -10 16 -5 3 -7 12 -3 20 5 15 -8 21 -20 8z"/>
<path d="M1556 358 c-3 -13 -7 -50 -10 -83 -5 -55 -4 -58 9 -41 10 13 15 42
15 83 0 64 -6 81 -14 41z"/>
<path d="M1480 360 c0 -5 5 -10 11 -10 5 0 7 5 4 10 -3 6 -8 10 -11 10 -2 0
-4 -4 -4 -10z"/>
<path d="M1400 346 c0 -2 7 -7 16 -10 8 -3 12 -2 9 4 -6 10 -25 14 -25 6z"/>
<path d="M1485 290 c3 -5 8 -10 11 -10 2 0 4 5 4 10 0 6 -5 10 -11 10 -5 0 -7
-4 -4 -10z"/>
<path d="M1550 194 c0 -8 5 -12 10 -9 6 4 8 11 5 16 -9 14 -15 11 -15 -7z"/>
</g>
</svg>
